<svg id="visual" viewBox="0 0 540 960" width="540" height="960" xmlns="http://www.w3.org/2000/svg" xmlns:xlink="http://www.w3.org/1999/xlink" version="1.1"><rect x="0" y="0" width="540" height="960" fill="#f0f4ff"></rect><defs><linearGradient id="grad1_0" x1="0%" y1="0%" x2="100%" y2="100%"><stop offset="30%" stop-color="#f0f4ff" stop-opacity="1"></stop><stop offset="70%" stop-color="#f0f4ff" stop-opacity="1"></stop></linearGradient></defs><defs><linearGradient id="grad2_0" x1="0%" y1="0%" x2="100%" y2="100%"><stop offset="30%" stop-color="#f0f4ff" stop-opacity="1"></stop><stop offset="70%" stop-color="#f0f4ff" stop-opacity="1"></stop></linearGradient></defs><g transform="translate(540, 0)"><path d="M0 486C-52.9 456.6 -105.8 427.2 -169.5 409.3C-233.2 391.3 -307.7 384.9 -343.7 343.7C-379.6 302.4 -377.2 226.5 -394.5 163.4C-411.8 100.3 -448.9 50.2 -486 0L0 0Z" fill="#6d8cff"></path></g><g transform="translate(0, 960)"><path d="M0 -486C62.4 -478.6 124.8 -471.3 186 -449C247.2 -426.8 307.3 -389.6 338 -338C368.7 -286.4 370.1 -220.2 389.9 -161.5C409.7 -102.7 447.8 -51.4 486 0L0 0Z" fill="#6d8cff"></path></g></svg>